<?xml version="1.0" standalone="no"?><!DOCTYPE svg PUBLIC "-//W3C//DTD SVG 1.1//EN" "http://www.w3.org/Graphics/SVG/1.1/DTD/svg11.dtd"><svg t="1749349860051" class="icon" viewBox="0 0 1024 1024" version="1.1" xmlns="http://www.w3.org/2000/svg" p-id="4647" xmlns:xlink="http://www.w3.org/1999/xlink" width="20" height="20"><path d="M975.99 225.08c0.43-42.57-22.07-82.46-58.71-104.12l-158.61-93.8C721.91 5.4 676 4.99 638.88 26L478.5 116.75c-37.04 20.96-60.3 60.41-60.7 102.92l-0.88 85.95-91.44-54.07c-30.69-18.17-69.03-18.51-100.01-0.96l-120.05 67.93C74.49 336 55.08 368.93 54.73 404.44l-6.15 600.26 438.5 4.18v-0.49l480.83 4.61 8.08-787.92z m-844.6 698.41l5.32-518.24c0.05-6.35 3.54-12.25 9.07-15.37l120.08-67.95a17.9 17.9 0 0 1 17.88 0.17l118.73 70.21c5.48 3.24 8.85 9.21 8.78 15.53l-5.31 518.26-274.55-2.61z m755.39 6.75l-394.25-3.78 7.26-705.98c0.12-13.38 7.45-25.79 19.09-32.38l160.38-90.74c11.66-6.61 26.11-6.47 37.67 0.36l158.63 93.79c11.52 6.82 18.59 19.36 18.45 32.73l-7.23 706z" fill="currentColor" p-id="4648"></path><path d="M652.08 342.01h81.98v494.66h-81.98zM230.13 555.61h81.98v281.06h-81.98z" fill="currentColor" p-id="4649"></path></svg>