<?xml version="1.0" standalone="no"?><!DOCTYPE svg PUBLIC "-//W3C//DTD SVG 1.1//EN" "http://www.w3.org/Graphics/SVG/1.1/DTD/svg11.dtd"><svg t="1749350100552" class="icon" viewBox="0 0 1024 1024" version="1.1" xmlns="http://www.w3.org/2000/svg" p-id="10796" xmlns:xlink="http://www.w3.org/1999/xlink" width="200" height="200"><path d="M620 752h64a4 4 0 0 0 4-4V556a4 4 0 0 0-4-4h-64a4 4 0 0 0-4 4v192a4 4 0 0 0 4 4z m321.9-258.2L832 383.8V196a4 4 0 0 0-4-4H724a4 4 0 0 0-4 4v75.8L540.3 92.1a40.1 40.1 0 0 0-56.6 0l-22.6 22.7-379 379a3.9 3.9 0 0 0 0 5.6l45.2 45.3a4.2 4.2 0 0 0 5.7 0l59-59v369.9a40 40 0 0 0 40 40h560a40 40 0 0 0 40-40V485.7l59 59a4.2 4.2 0 0 0 5.7 0l45.2-45.3a3.9 3.9 0 0 0 0-5.6zM760 823.6H264V413.7l248-248 248 248z" p-id="10797"></path></svg>