<?xml version="1.0" standalone="no"?><!DOCTYPE svg PUBLIC "-//W3C//DTD SVG 1.1//EN" "http://www.w3.org/Graphics/SVG/1.1/DTD/svg11.dtd"><svg t="1749350266370" class="icon" viewBox="0 0 1024 1024" version="1.1" xmlns="http://www.w3.org/2000/svg" p-id="14682" xmlns:xlink="http://www.w3.org/1999/xlink" width="200" height="200"><path d="M502.058667 815.530667c21.632 0 39.68 16.426667 41.770666 37.930666l0.170667 4.010667v81.92a41.941333 41.941333 0 0 1-83.712 4.053333l-0.170667-4.053333v-81.92c0-23.168 18.773333-41.941333 41.941334-41.941333z m278.016-74.666667l2.986666 2.688 57.898667 57.898667a41.941333 41.941333 0 0 1-56.32 62.037333l-2.986667-2.688-57.898666-57.898667a41.941333 41.941333 0 0 1 56.32-62.08zM294.4 729.557333c15.274667 15.274667 16.426667 39.637333 2.688 56.32l-2.688 2.986667-57.898667 57.898667a41.941333 41.941333 0 0 1-62.08-56.32l2.730667-2.986667 57.898667-57.898667a41.941333 41.941333 0 0 1 59.306666 0zM505.856 255.573333a237.738667 237.738667 0 1 1 0.042667 475.477334 237.738667 237.738667 0 0 1 0-475.477334z m0 83.882667a153.813333 153.813333 0 1 0 0 307.626667 153.813333 153.813333 0 0 0 0-307.626667z m433.536 140.501333a41.941333 41.941333 0 0 1 4.053333 83.669334l-4.053333 0.213333h-81.92a41.941333 41.941333 0 0 1-4.010667-83.712l4.053334-0.170667h81.92z m-772.949333 0a41.941333 41.941333 0 0 1 4.010666 83.669334l-4.010666 0.213333H84.48a41.941333 41.941333 0 0 1-4.053333-83.712l4.053333-0.170667h81.92z m67.072-285.653333l2.986666 2.730667L294.4 254.933333a41.941333 41.941333 0 0 1-56.32 62.037334l-2.986667-2.688-57.941333-57.898667a41.941333 41.941333 0 0 1 56.32-62.08zM840.96 183.04c15.274667 15.274667 16.469333 39.68 2.730667 56.32l-2.730667 2.986667-57.898667 57.898666a41.941333 41.941333 0 0 1-62.037333-56.32l2.688-2.986666L781.653333 183.04a41.941333 41.941333 0 0 1 59.349334 0zM502.058667 42.666667c21.632 0 39.68 16.426667 41.770666 37.930666l0.170667 4.010667v81.92a41.941333 41.941333 0 0 1-83.712 4.010667l-0.170667-4.053334V84.608c0-23.168 18.773333-41.941333 41.941334-41.941333z" fill="#424242" p-id="14683"></path></svg>